<?xml version="1.0" encoding="utf-8"?>
<!-- Generator: Adobe Illustrator 14.0.0, SVG Export Plug-In . SVG Version: 6.00 Build 43363)  -->
<!DOCTYPE svg PUBLIC "-//W3C//DTD SVG 1.1//EN" "http://www.w3.org/Graphics/SVG/1.1/DTD/svg11.dtd">
<svg version="1.1" id="Ebene_1" xmlns="http://www.w3.org/2000/svg" xmlns:xlink="http://www.w3.org/1999/xlink" x="0px" y="0px"
	 width="595.28px" height="841.89px" viewBox="0 0 595.28 841.89" enable-background="new 0 0 595.28 841.89" xml:space="preserve">
<polygon fill="#1F1E21" points="294.812,224.331 294.812,231.362 300.86,231.362 300.86,232.706 294.812,232.706 294.812,241.031 
	293.288,241.031 293.288,222.985 301.531,222.985 301.531,224.331 294.812,224.331 "/>
<path fill="#1F1E21" d="M315.767,241.031l-4.316-8.506h-2.172v8.506h-1.525v-18.046h3.746c3.518,0,5.12,2.018,5.12,4.629
	c0,2.66-1.68,4.109-3.62,4.703l4.629,8.713H315.767L315.767,241.031z M311.348,224.331h-2.069v6.875h2.095
	c2.505,0,3.592-1.525,3.592-3.412C314.965,226.061,314.085,224.331,311.348,224.331"/>
<path fill="#1F1E21" d="M333.956,241.029c-0.441-1.68-0.934-3.491-1.424-5.17h-7.339c-0.493,1.656-1.008,3.517-1.449,5.17h-1.628
	c1.836-6.567,3.878-12.639,6.021-18.044h1.475c2.402,6.024,4.367,12.073,6.048,18.044H333.956L333.956,241.029z M332.144,234.566
	c-0.774-2.506-1.703-5.272-2.637-7.883c-0.229-0.647-0.465-1.449-0.672-2.068h-0.024c-0.205,0.646-0.466,1.447-0.673,2.068
	c-0.879,2.533-1.782,5.299-2.559,7.883H332.144L332.144,234.566z"/>
<polygon fill="#1F1E21" points="351.11,241.029 343.071,224.899 343.046,224.899 343.046,241.029 341.571,241.029 341.571,222.986 
	343.821,222.986 351.602,238.625 351.656,238.625 351.656,222.986 353.128,222.986 353.128,241.029 351.11,241.029 "/>
<path fill="#1F1E21" d="M368.479,241.029l-6.178-9.461l-1.111,1.189v8.272h-1.523v-18.043h1.523v8.041
	c2.352-2.637,4.782-5.352,7.107-8.041h2.042l-7.005,7.523l7.059,10.52H368.479L368.479,241.029z"/>
<polygon fill="#1F1E21" points="377.727,224.331 377.727,231.362 383.774,231.362 383.774,232.706 377.727,232.706 377.727,241.031 
	376.2,241.031 376.2,222.985 384.446,222.985 384.446,224.331 377.727,224.331 "/>
<path fill="#1F1E21" d="M401.248,234.411c0,4.577-2.327,6.85-5.867,6.85c-3.44,0-5.769-2.197-5.769-6.539v-11.736h1.527v11.58
	c0,3.619,1.654,5.377,4.316,5.377c2.663,0,4.315-1.758,4.315-5.377v-11.58h1.477V234.411L401.248,234.411z"/>
<path fill="#1F1E21" d="M415.748,241.031l-4.315-8.506h-2.172v8.506h-1.527v-18.046h3.748c3.517,0,5.119,2.018,5.119,4.629
	c0,2.66-1.68,4.109-3.619,4.703l4.627,8.713H415.748L415.748,241.031z M411.329,224.331h-2.068v6.875h2.092
	c2.508,0,3.596-1.525,3.596-3.412C414.948,226.061,414.068,224.331,411.329,224.331"/>
<polygon fill="#1F1E21" points="427.277,224.303 427.277,241.029 425.724,241.029 425.724,224.303 420.632,224.303 420.632,222.986 
	432.369,222.986 432.369,224.303 427.277,224.303 "/>
<path fill="#1F1E21" d="M304.765,266.661c0,4.574-2.328,6.85-5.868,6.85c-3.44,0-5.766-2.198-5.766-6.542v-11.734h1.529v11.58
	c0,3.617,1.655,5.377,4.314,5.377c2.66,0,4.315-1.76,4.315-5.377v-11.58h1.476V266.661L304.765,266.661z"/>
<polygon fill="#1F1E21" points="320.715,273.276 312.673,257.146 312.647,257.146 312.647,273.276 311.173,273.276 311.173,255.235 
	313.423,255.235 321.204,270.874 321.253,270.874 321.253,255.235 322.728,255.235 322.728,273.276 320.715,273.276 "/>
<polygon fill="#1F1E21" points="330.19,255.235 331.715,255.235 331.715,273.276 330.19,273.276 330.19,255.235 "/>
<path fill="#1F1E21" d="M350.884,255.235c-1.702,6.049-3.694,12.07-6.049,18.041h-1.495c-2.407-6.019-4.371-12.019-6.051-18.041
	h1.706c1.24,4.86,2.791,9.668,4.448,14.346l0.671,2.068h0.025l0.695-2.043c1.579-4.576,3.154-9.486,4.396-14.371H350.884
	L350.884,255.235z"/>
<polygon fill="#1F1E21" points="356.46,273.276 356.46,255.235 364.911,255.235 364.911,256.579 357.985,256.579 357.985,263.194 
	364.085,263.194 364.085,264.54 357.985,264.54 357.985,271.932 365.042,271.932 365.042,273.276 356.46,273.276 "/>
<path fill="#1F1E21" d="M378.821,273.276l-4.318-8.504h-2.172v8.504h-1.524v-18.041h3.747c3.516,0,5.119,2.016,5.119,4.625
	c0,2.664-1.679,4.109-3.619,4.705l4.625,8.711H378.821L378.821,273.276z M374.402,256.579h-2.071v6.877h2.094
	c2.508,0,3.594-1.528,3.594-3.414C378.019,258.309,377.14,256.579,374.402,256.579"/>
<path fill="#1F1E21" d="M387.917,273.534c-1.061,0-2.223-0.18-3.309-0.514l0.285-1.451c1.086,0.363,2.171,0.572,3.387,0.572
	c2.25,0,3.567-1.371,3.567-3.439c0-2.096-1.448-2.975-3.489-4.215c-2.326-1.369-3.594-2.607-3.594-4.961
	c0-2.637,1.965-4.523,5.042-4.523c0.825,0,1.965,0.154,2.662,0.386l-0.283,1.344c-0.778-0.23-1.708-0.388-2.562-0.388
	c-2.196,0-3.229,1.423-3.229,3.052c0,2.041,1.421,2.946,3.384,4.137c2.483,1.473,3.725,2.762,3.725,5.039
	C393.502,271.598,391.382,273.534,387.917,273.534"/>
<polygon fill="#1F1E21" points="399.723,255.235 401.248,255.235 401.248,273.276 399.723,273.276 399.723,255.235 "/>
<polygon fill="#1F1E21" points="412.259,256.552 412.259,273.276 410.704,273.276 410.704,256.552 405.614,256.552 405.614,255.235 
	417.351,255.235 417.351,256.552 412.259,256.552 "/>
<path fill="#1F1E21" d="M432.443,255.235c-1.574,3.283-3.333,6.668-5.685,10.184v7.857h-1.527v-7.857
	c-2.195-3.309-4.059-6.745-5.684-10.184h1.729c1.346,2.998,3.024,6.231,4.837,8.969c1.676-2.766,3.434-6.152,4.625-8.969H432.443
	L432.443,255.235z"/>
<path fill="#1F1E21" d="M201.036,305.781c-4.963,0-7.289-3.927-7.289-9.121c0-5.508,2.585-9.41,7.496-9.41
	c4.887,0,7.289,3.955,7.289,9.125C208.532,301.906,205.973,305.781,201.036,305.781 M201.01,288.594c-4.031,0-5.608,3.67-5.608,7.78
	c0,4.625,1.653,8.063,5.866,8.063c4.084,0,5.61-3.721,5.61-7.778C206.878,292.031,205.198,288.594,201.01,288.594"/>
<polygon fill="#1F1E21" points="214.504,288.826 214.504,295.857 220.551,295.857 220.551,297.201 214.504,297.201 214.504,305.525 
	212.979,305.525 212.979,287.484 221.223,287.484 221.223,288.826 214.504,288.826 "/>
<path fill="#1F1E21" d="M241.748,305.525c-0.439-1.681-0.931-3.49-1.422-5.171h-7.341c-0.491,1.656-1.008,3.517-1.447,5.171h-1.629
	c1.836-6.568,3.878-12.64,6.023-18.041h1.474c2.403,6.022,4.366,12.067,6.048,18.041H241.748L241.748,305.525z M239.938,299.061
	c-0.774-2.506-1.707-5.272-2.637-7.883c-0.232-0.646-0.465-1.446-0.671-2.067h-0.026c-0.207,0.647-0.465,1.446-0.672,2.067
	c-0.879,2.535-1.785,5.299-2.559,7.883H239.938L239.938,299.061z"/>
<path fill="#1F1E21" d="M251.859,298.21h-2.456v7.314h-1.526v-18.041h3.904c0.725,0,1.422,0.075,2.016,0.231
	c2.12,0.569,3.438,2.454,3.438,4.938C257.235,295.988,255.244,298.21,251.859,298.21 M253.203,289.008
	c-0.492-0.13-1.111-0.183-1.604-0.183h-2.196v8.063h2.61c2.301,0,3.567-1.627,3.567-4.108
	C255.58,290.893,254.676,289.422,253.203,289.008"/>
<path fill="#1F1E21" d="M266.506,298.21h-2.455v7.314h-1.525v-18.041h3.903c0.723,0,1.422,0.075,2.015,0.231
	c2.121,0.569,3.44,2.454,3.44,4.938C271.884,295.988,269.892,298.21,266.506,298.21 M267.851,289.008
	c-0.491-0.13-1.113-0.183-1.603-0.183h-2.197v8.063h2.611c2.301,0,3.566-1.627,3.566-4.108
	C270.228,290.893,269.324,289.422,267.851,289.008"/>
<polygon fill="#1F1E21" points="276.174,305.525 276.174,287.484 277.698,287.484 277.698,304.154 284.213,304.154 284.213,305.525 
	276.174,305.525 "/>
<polygon fill="#1F1E21" points="287.548,287.484 289.072,287.484 289.072,305.525 287.548,305.525 287.548,287.484 "/>
<polygon fill="#1F1E21" points="294.448,305.525 294.448,287.484 302.897,287.484 302.897,288.826 295.972,288.826 295.972,295.443 
	302.073,295.443 302.073,296.789 295.972,296.789 295.972,304.18 303.028,304.18 303.028,305.525 294.448,305.525 "/>
<path fill="#1F1E21" d="M312.128,305.525h-4.422v-18.041h4.705c5.016,0,7.628,3.541,7.628,8.76
	C320.039,302.264,317.245,305.525,312.128,305.525 M312.308,288.826h-3.074v15.354h3.049c4.084,0,6.102-2.429,6.102-7.858
	C318.384,292.031,316.522,288.826,312.308,288.826"/>
<path fill="#1F1E21" d="M333.182,305.781c-1.062,0-2.226-0.181-3.312-0.515l0.29-1.448c1.084,0.362,2.167,0.569,3.382,0.569
	c2.25,0,3.566-1.371,3.566-3.438c0-2.095-1.447-2.974-3.488-4.213c-2.326-1.369-3.592-2.609-3.592-4.961
	c0-2.638,1.966-4.525,5.04-4.525c0.828,0,1.964,0.154,2.663,0.388l-0.285,1.342c-0.775-0.229-1.707-0.385-2.561-0.385
	c-2.192,0-3.229,1.422-3.229,3.049c0,2.041,1.423,2.947,3.386,4.138c2.482,1.474,3.721,2.764,3.721,5.037
	C338.763,303.844,336.646,305.781,333.182,305.781"/>
<path fill="#1F1E21" d="M353.473,304.672c-1.267,0.646-2.69,1.032-4.216,1.032c-4.496,0-7.312-3.256-7.312-8.996
	c0-5.659,2.764-9.407,7.367-9.407c1.499,0,2.764,0.31,4.058,0.957l-0.544,1.239c-1.136-0.541-2.273-0.825-3.644-0.825
	c-3.542,0-5.558,3.178-5.558,7.856c0,4.989,2.147,7.805,5.867,7.805c1.344,0,2.557-0.411,3.541-0.903L353.473,304.672
	L353.473,304.672z"/>
<polygon fill="#1F1E21" points="358.427,287.484 359.954,287.484 359.954,305.525 358.427,305.525 358.427,287.484 "/>
<polygon fill="#1F1E21" points="365.802,305.525 365.802,287.484 374.253,287.484 374.253,288.826 367.327,288.826 367.327,295.443 
	373.427,295.443 373.427,296.789 367.327,296.789 367.327,304.18 374.384,304.18 374.384,305.525 365.802,305.525 "/>
<polygon fill="#1F1E21" points="388.94,305.525 380.902,289.393 380.877,289.393 380.877,305.525 379.403,305.525 379.403,287.484 
	381.652,287.484 389.432,303.121 389.483,303.121 389.483,287.484 390.956,287.484 390.956,305.525 388.94,305.525 "/>
<path fill="#1F1E21" d="M406.905,304.672c-1.268,0.646-2.687,1.032-4.216,1.032c-4.496,0-7.312-3.256-7.312-8.996
	c0-5.659,2.765-9.407,7.367-9.407c1.5,0,2.765,0.31,4.056,0.957l-0.541,1.239c-1.136-0.541-2.275-0.825-3.645-0.825
	c-3.541,0-5.558,3.178-5.558,7.856c0,4.989,2.146,7.805,5.868,7.805c1.342,0,2.559-0.411,3.541-0.903L406.905,304.672
	L406.905,304.672z"/>
<polygon fill="#1F1E21" points="411.575,305.525 411.575,287.484 420.027,287.484 420.027,288.826 413.102,288.826 413.102,295.443 
	419.2,295.443 419.2,296.789 413.102,296.789 413.102,304.18 420.157,304.18 420.157,305.525 411.575,305.525 "/>
<path fill="#1F1E21" d="M427.03,305.781c-1.058,0-2.223-0.181-3.308-0.515l0.284-1.448c1.088,0.362,2.172,0.569,3.387,0.569
	c2.248,0,3.568-1.371,3.568-3.438c0-2.095-1.449-2.974-3.489-4.213c-2.326-1.369-3.592-2.609-3.592-4.961
	c0-2.638,1.963-4.525,5.038-4.525c0.829,0,1.967,0.154,2.664,0.388l-0.285,1.342c-0.776-0.229-1.704-0.385-2.559-0.385
	c-2.199,0-3.23,1.422-3.23,3.049c0,2.041,1.42,2.947,3.383,4.138c2.485,1.474,3.723,2.764,3.723,5.037
	C432.614,303.844,430.498,305.781,427.03,305.781"/>
<polygon fill="#AECAE2" points="239.11,273.282 222.067,273.282 222.067,189.911 239.11,189.911 239.11,273.282 "/>
<polygon fill="#AECAE2" points="267.491,273.282 250.449,273.282 250.449,205.281 267.491,205.281 267.491,273.282 "/>
<polygon fill="#2D89CC" points="246.375,271.37 242.426,272.421 242.426,190.722 246.375,191.786 246.375,271.37 "/>
<polygon fill="#2D89CC" points="274.872,271.368 270.807,272.427 270.807,206.151 274.872,207.237 274.872,271.368 "/>
<path fill="#AECAE2" d="M277.35,247.122v3.736c24.244-2.031,47.979-3.308,68.708-3.095
	C327.142,246.667,302.829,246.031,277.35,247.122"/>
<path fill="#AECAE2" d="M184.752,277.27c-17.345-4.849-15.808-10.859,6.606-16.599v-6.366c-39.121,6.84-56.328,15.729-40.567,21.965
	c14.147,6.224,56.563,7.511,102.329,4.566C224.055,280.153,199.737,280.186,184.752,277.27"/>
<polygon fill="#AECAE2" points="210.729,273.274 193.686,273.274 193.686,220.086 210.729,220.086 210.729,273.274 "/>
<polygon fill="#2D89CC" points="218.071,271.288 214.046,272.424 214.046,220.917 218.071,222.041 218.071,271.288 "/>
</svg>
